<svg width="65" height="68" viewBox="0 0 65 68" fill="none" xmlns="http://www.w3.org/2000/svg">
<g filter="url(#filter0_d_1_9653)">
<rect x="5" y="10.5" width="50" height="50" rx="25" fill="white"/>
<path fill-rule="evenodd" clip-rule="evenodd" d="M30 25.5C24.4771 25.5 20 29.6712 20 34.8168C20 37.7488 21.4542 40.364 23.7267 42.0719V45.6242L27.1316 43.7439C28.0403 43.997 29.003 44.1335 30 44.1335C35.5229 44.1335 40 39.9623 40 34.8168C40 29.6712 35.5229 25.5 30 25.5ZM30.9938 38.0466L28.4472 35.3137L23.4783 38.0466L28.9441 32.2081L31.5528 34.941L36.4596 32.2081L30.9938 38.0466Z" fill="#C3CAD9"/>
</g>
<rect x="45" y="10.5" width="10" height="10" rx="5" fill="#3361FF"/>
<defs>
<filter id="filter0_d_1_9653" x="0" y="7.5" width="60" height="60" filterUnits="userSpaceOnUse" color-interpolation-filters="sRGB">
<feFlood flood-opacity="0" result="BackgroundImageFix"/>
<feColorMatrix in="SourceAlpha" type="matrix" values="0 0 0 0 0 0 0 0 0 0 0 0 0 0 0 0 0 0 127 0" result="hardAlpha"/>
<feOffset dy="2"/>
<feGaussianBlur stdDeviation="2.5"/>
<feColorMatrix type="matrix" values="0 0 0 0 0.14902 0 0 0 0 0.2 0 0 0 0 0.301961 0 0 0 0.03 0"/>
<feBlend mode="normal" in2="BackgroundImageFix" result="effect1_dropShadow_1_9653"/>
<feBlend mode="normal" in="SourceGraphic" in2="effect1_dropShadow_1_9653" result="shape"/>
</filter>
</defs>
</svg>
