<svg width="18" height="11" viewBox="0 0 18 11" fill="none" xmlns="http://www.w3.org/2000/svg">
<path fill-rule="evenodd" clip-rule="evenodd" d="M1 2.5C1.55 2.5 2 2.05 2 1.5C2 0.95 1.55 0.5 1 0.5C0.45 0.5 0 0.95 0 1.5C0 2.05 0.45 2.5 1 2.5ZM2 5.5C2 6.05 1.55 6.5 1 6.5C0.45 6.5 0 6.05 0 5.5C0 4.95 0.45 4.5 1 4.5C1.55 4.5 2 4.95 2 5.5ZM2 9.5C2 10.05 1.55 10.5 1 10.5C0.45 10.5 0 10.05 0 9.5C0 8.95 0.45 8.5 1 8.5C1.55 8.5 2 8.95 2 9.5ZM18 5.5C18 6.05 17.55 6.5 17 6.5H5C4.45 6.5 4 6.05 4 5.5C4 4.95 4.45 4.5 5 4.5H17C17.55 4.5 18 4.95 18 5.5ZM17 10.5C17.55 10.5 18 10.05 18 9.5C18 8.95 17.55 8.5 17 8.5H5C4.45 8.5 4 8.95 4 9.5C4 10.05 4.45 10.5 5 10.5H17ZM5 2.5C4.45 2.5 4 2.05 4 1.5C4 0.95 4.45 0.5 5 0.5H17C17.55 0.5 18 0.95 18 1.5C18 2.05 17.55 2.5 17 2.5H5Z" fill="#C3CAD9"/>
</svg>
