<svg width="15" height="14" viewBox="0 0 15 14" fill="none" xmlns="http://www.w3.org/2000/svg">
<path fill-rule="evenodd" clip-rule="evenodd" d="M10.8005 9.10049H10.1685L9.94449 8.88449C10.9045 7.76449 11.4005 6.23649 11.1285 4.61249C10.7525 2.38849 8.89649 0.612488 6.65649 0.340488C3.27249 -0.0755117 0.424488 2.77249 0.840488 6.15649C1.11249 8.39649 2.88849 10.2525 5.11249 10.6285C6.73649 10.9005 8.26449 10.4045 9.38449 9.44449L9.60049 9.66849V10.3005L13.0005 13.7005C13.3285 14.0285 13.8645 14.0285 14.1925 13.7005C14.5205 13.3725 14.5205 12.8365 14.1925 12.5085L10.8005 9.10049ZM6.00049 9.10049C4.00849 9.10049 2.40049 7.49249 2.40049 5.50049C2.40049 3.50849 4.00849 1.90049 6.00049 1.90049C7.99249 1.90049 9.60049 3.50849 9.60049 5.50049C9.60049 7.49249 7.99249 9.10049 6.00049 9.10049Z" fill="#C3CAD9"/>
</svg>
