<svg width="60" height="61" viewBox="0 0 60 61" fill="none" xmlns="http://www.w3.org/2000/svg">
<g filter="url(#filter0_d_1_9656)">
<rect x="5" y="3.5" width="50" height="50" rx="25" fill="white"/>
<path fill-rule="evenodd" clip-rule="evenodd" d="M29.557 34.1975L33.707 36.7075C34.467 37.1675 35.397 36.4875 35.197 35.6275L34.097 30.9075L37.767 27.7275C38.437 27.1475 38.077 26.0475 37.197 25.9775L32.367 25.5675L30.477 21.1075C30.137 20.2975 28.977 20.2975 28.637 21.1075L26.747 25.5575L21.917 25.9675C21.037 26.0375 20.677 27.1375 21.347 27.7175L25.017 30.8975L23.917 35.6175C23.717 36.4775 24.647 37.1575 25.407 36.6975L29.557 34.1975Z" fill="#C3CAD9"/>
</g>
<defs>
<filter id="filter0_d_1_9656" x="0" y="0.5" width="60" height="60" filterUnits="userSpaceOnUse" color-interpolation-filters="sRGB">
<feFlood flood-opacity="0" result="BackgroundImageFix"/>
<feColorMatrix in="SourceAlpha" type="matrix" values="0 0 0 0 0 0 0 0 0 0 0 0 0 0 0 0 0 0 127 0" result="hardAlpha"/>
<feOffset dy="2"/>
<feGaussianBlur stdDeviation="2.5"/>
<feColorMatrix type="matrix" values="0 0 0 0 0.14902 0 0 0 0 0.2 0 0 0 0 0.301961 0 0 0 0.03 0"/>
<feBlend mode="normal" in2="BackgroundImageFix" result="effect1_dropShadow_1_9656"/>
<feBlend mode="normal" in="SourceGraphic" in2="effect1_dropShadow_1_9656" result="shape"/>
</filter>
</defs>
</svg>
